<svg width="48" height="49" viewBox="0 0 48 49" fill="none" xmlns="http://www.w3.org/2000/svg">
<g clip-path="url(#clip0_188_4223)">
<circle cx="24.0002" cy="24.4992" r="23.8" fill="#283447"/>
<mask id="path-2-inside-1_188_4223" fill="white">
<path fill-rule="evenodd" clip-rule="evenodd" d="M24.0547 0.692253C14.3142 0.671602 5.16184 6.67721 1.6381 16.3586C-1.88564 26.04 1.26518 36.5236 8.74008 42.7688L24.0547 0.692253Z"/>
</mask>
<path fill-rule="evenodd" clip-rule="evenodd" d="M24.0547 0.692253C14.3142 0.671602 5.16184 6.67721 1.6381 16.3586C-1.88564 26.04 1.26518 36.5236 8.74008 42.7688L24.0547 0.692253Z" fill="#F5F1E8"/>
<path d="M24.0547 0.692253L24.9866 1.03142L25.4699 -0.296416L24.0568 -0.299411L24.0547 0.692253ZM8.74008 42.7688L8.10426 43.5298L9.18864 44.4358L9.67194 43.108L8.74008 42.7688ZM2.56996 16.6978C5.94635 7.42123 14.7165 1.66412 24.0526 1.68392L24.0568 -0.299411C13.912 -0.32092 4.37733 5.93318 0.706238 16.0194L2.56996 16.6978ZM9.37589 42.0078C2.21129 36.0218 -0.806422 25.9743 2.56996 16.6978L0.706238 16.0194C-2.96485 26.1057 0.319064 37.0254 8.10426 43.5298L9.37589 42.0078ZM9.67194 43.108L24.9866 1.03142L23.1228 0.353083L7.80821 42.4297L9.67194 43.108Z" fill="url(#paint0_linear_188_4223)" mask="url(#path-2-inside-1_188_4223)"/>
<g clip-path="url(#clip1_188_4223)">
<path d="M24.3562 27.2263L34.0892 0.947135H39.5105L29.7774 27.2263H24.3562Z" fill="url(#paint1_linear_188_4223)" stroke="url(#paint2_linear_188_4223)" stroke-width="0.495833"/>
<path d="M32.2898 27.2263L42.0228 0.947135H45.4607L35.7277 27.2263H32.2898Z" fill="url(#paint3_linear_188_4223)" stroke="url(#paint4_linear_188_4223)" stroke-width="0.495833"/>
<rect x="24.2227" y="0.179688" width="1.29161" height="45.6768" transform="rotate(20 24.2227 0.179688)" fill="url(#paint5_linear_188_4223)"/>
<g style="mix-blend-mode:screen" opacity="0.4">
<rect x="0.696029" y="1.19505" width="46.6083" height="46.6083" rx="23.3042" stroke="url(#paint6_linear_188_4223)" stroke-width="0.991667"/>
</g>
<g style="mix-blend-mode:screen" opacity="0.4">
<rect x="0.696029" y="1.19505" width="46.6083" height="46.6083" rx="23.3042" stroke="url(#paint7_linear_188_4223)" stroke-width="0.991667"/>
</g>
</g>
</g>
<defs>
<linearGradient id="paint0_linear_188_4223" x1="2.99988" y1="13.9991" x2="14.9004" y2="20.2994" gradientUnits="userSpaceOnUse">
<stop stop-color="#E6DFD0"/>
<stop offset="1" stop-color="#E5DFD0" stop-opacity="0"/>
</linearGradient>
<linearGradient id="paint1_linear_188_4223" x1="24.9917" y1="32.4326" x2="45.3208" y2="-26.0758" gradientUnits="userSpaceOnUse">
<stop offset="0.0842611" stop-color="white"/>
<stop offset="1" stop-color="white" stop-opacity="0"/>
</linearGradient>
<linearGradient id="paint2_linear_188_4223" x1="27.9667" y1="32.9284" x2="21.5208" y2="22.5159" gradientUnits="userSpaceOnUse">
<stop stop-color="white"/>
<stop offset="1" stop-color="white" stop-opacity="0"/>
</linearGradient>
<linearGradient id="paint3_linear_188_4223" x1="31.4378" y1="32.9284" x2="47.3044" y2="-9.71328" gradientUnits="userSpaceOnUse">
<stop stop-color="#465163"/>
<stop offset="1" stop-color="#4B5159" stop-opacity="0.46"/>
</linearGradient>
<linearGradient id="paint4_linear_188_4223" x1="31.9336" y1="32.4326" x2="41.8503" y2="6.15339" gradientUnits="userSpaceOnUse">
<stop stop-color="#495567"/>
<stop offset="1" stop-color="#454F60" stop-opacity="0"/>
</linearGradient>
<linearGradient id="paint5_linear_188_4223" x1="24.8685" y1="0.179687" x2="24.8685" y2="45.8565" gradientUnits="userSpaceOnUse">
<stop stop-color="#47566F" stop-opacity="0"/>
<stop offset="0.500574" stop-color="#637593"/>
<stop offset="1" stop-color="#47566F" stop-opacity="0"/>
</linearGradient>
<linearGradient id="paint6_linear_188_4223" x1="28.4627" y1="24.4992" x2="42.8419" y2="39.3742" gradientUnits="userSpaceOnUse">
<stop stop-color="#2C2C2C" stop-opacity="0"/>
<stop offset="1" stop-color="#3C3C3C"/>
</linearGradient>
<linearGradient id="paint7_linear_188_4223" x1="17.5544" y1="23.0117" x2="2.18353" y2="13.5909" gradientUnits="userSpaceOnUse">
<stop stop-color="#2C2C2C" stop-opacity="0"/>
<stop offset="1" stop-color="white"/>
</linearGradient>
<clipPath id="clip0_188_4223">
<rect width="47.6" height="47.6" fill="white" transform="translate(0.200195 0.699219)"/>
</clipPath>
<clipPath id="clip1_188_4223">
<rect x="0.200195" y="0.699219" width="47.6" height="47.6" rx="23.8" fill="white"/>
</clipPath>
</defs>
</svg>
