<svg width="42" height="41" viewBox="0 0 42 41" fill="none" xmlns="http://www.w3.org/2000/svg">
<g clip-path="url(#clip0_188_4192)">
<path d="M27.4493 1.32916C22.3652 -0.521312 16.7542 -0.27633 11.8507 2.01021C6.94722 4.29675 3.15288 8.43755 1.30241 13.5217C-0.548065 18.6058 -0.303084 24.2168 1.98346 29.1203C4.27 34.0238 8.41079 37.8181 13.4949 39.6686L20.4721 20.4989L27.4493 1.32916Z" fill="#000101"/>
<path d="M13.5031 39.6716C18.588 41.5199 24.1989 41.2725 29.1014 38.9838C34.0039 36.6951 37.7964 32.5526 39.6447 27.4677C41.4929 22.3828 41.2455 16.7719 38.9568 11.8694C36.6681 6.96688 32.5257 3.17434 27.4408 1.3261L20.4719 20.4989L13.5031 39.6716Z" fill="#C5E06C"/>
<path d="M13.5031 39.6716C18.588 41.5199 24.1989 41.2725 29.1014 38.9838C34.0039 36.6951 37.7964 32.5526 39.6447 27.4677C41.4929 22.3828 41.2455 16.7719 38.9568 11.8694C36.6681 6.96688 32.5257 3.17434 27.4408 1.3261L20.4719 20.4989L13.5031 39.6716Z" fill="url(#paint0_linear_188_4192)" fill-opacity="0.2"/>
<g style="mix-blend-mode:soft-light">
<rect x="26.9705" y="1.22852" width="0.953015" height="40.6111" transform="rotate(20 26.9705 1.22852)" fill="url(#paint1_linear_188_4192)"/>
</g>
<rect x="0.494336" y="0.524609" width="39.95" height="39.95" rx="19.975" stroke="url(#paint2_linear_188_4192)" stroke-width="0.85"/>
<g opacity="0.4">
<rect x="0.700391" y="0.524609" width="39.95" height="39.95" rx="19.975" stroke="url(#paint3_linear_188_4192)" stroke-width="0.85"/>
</g>
</g>
<defs>
<linearGradient id="paint0_linear_188_4192" x1="27.9002" y1="1.79873" x2="13.8752" y2="40.4737" gradientUnits="userSpaceOnUse">
<stop stop-color="white" stop-opacity="0"/>
<stop offset="0.487908" stop-color="white"/>
<stop offset="1" stop-color="white" stop-opacity="0"/>
</linearGradient>
<linearGradient id="paint1_linear_188_4192" x1="27.447" y1="1.22852" x2="27.447" y2="41.8396" gradientUnits="userSpaceOnUse">
<stop stop-color="white" stop-opacity="0"/>
<stop offset="0.500574" stop-color="white"/>
<stop offset="1" stop-color="white" stop-opacity="0"/>
</linearGradient>
<linearGradient id="paint2_linear_188_4192" x1="19.8252" y1="25.1746" x2="36.6193" y2="33.2496" gradientUnits="userSpaceOnUse">
<stop stop-color="white" stop-opacity="0"/>
<stop offset="1" stop-color="#F2FEC9"/>
</linearGradient>
<linearGradient id="paint3_linear_188_4192" x1="15.1504" y1="19.2246" x2="1.97539" y2="11.1496" gradientUnits="userSpaceOnUse">
<stop stop-color="#888888" stop-opacity="0"/>
<stop offset="1" stop-color="#575757"/>
</linearGradient>
<clipPath id="clip0_188_4192">
<rect x="0.275391" y="0.0996094" width="40.8" height="40.8" rx="20.4" fill="white"/>
</clipPath>
</defs>
</svg>
