<svg width="42" height="41" viewBox="0 0 42 41" fill="none" xmlns="http://www.w3.org/2000/svg">
<g clip-path="url(#clip0_188_4100)">
<path d="M27.9992 1.32916C22.915 -0.521312 17.304 -0.27633 12.4005 2.01021C7.49703 4.29675 3.70268 8.43755 1.85221 13.5217C0.00173976 18.6058 0.24672 24.2168 2.53326 29.1203C4.8198 34.0238 8.9606 37.8181 14.0447 39.6686L21.0219 20.4989L27.9992 1.32916Z" fill="#322E3C"/>
<path d="M14.0529 39.6716C19.1378 41.5199 24.7487 41.2725 29.6512 38.9838C34.5537 36.6951 38.3463 32.5526 40.1945 27.4677C42.0428 22.3828 41.7953 16.7719 39.5066 11.8694C37.2179 6.96688 33.0755 3.17434 27.9906 1.3261L21.0217 20.4989L14.0529 39.6716Z" fill="#000101"/>
<g style="mix-blend-mode:soft-light">
<rect x="26.7668" y="1.27539" width="1.2" height="40.6111" transform="rotate(20 26.7668 1.27539)" fill="url(#paint0_linear_188_4100)"/>
</g>
<rect x="1.04414" y="0.524609" width="39.95" height="39.95" rx="19.975" stroke="url(#paint1_linear_188_4100)" stroke-width="0.85"/>
<g opacity="0.4">
<rect x="1.2502" y="0.524609" width="39.95" height="39.95" rx="19.975" stroke="url(#paint2_linear_188_4100)" stroke-width="0.85"/>
</g>
<g style="mix-blend-mode:soft-light">
<path fill-rule="evenodd" clip-rule="evenodd" d="M23.118 1.54269L22.5534 1.33278L21.9839 2.86467L20.5738 2.34049L20.3463 2.95257L21.7563 3.47675L21.1881 5.00528L21.7528 5.2152L22.321 3.68667L23.7343 4.21205L23.9618 3.59996L22.5485 3.07458L23.118 1.54269Z" fill="url(#paint3_radial_188_4100)"/>
<path fill-rule="evenodd" clip-rule="evenodd" d="M20.8525 8.42255L20.2872 8.21238L19.717 9.74619L18.3051 9.22131L18.0772 9.83416L19.4891 10.359L18.9202 11.8895L19.4856 12.0996L20.0545 10.5692L21.4694 11.0952L21.6972 10.4824L20.2823 9.95636L20.8525 8.42255Z" fill="url(#paint4_radial_188_4100)"/>
<path fill-rule="evenodd" clip-rule="evenodd" d="M18.3648 14.7835L17.7608 14.559L17.1516 16.1978L15.6427 15.6369L15.3993 16.2916L16.9082 16.8526L16.3004 18.4875L16.9044 18.712L17.5122 17.0771L19.0234 17.6389L19.2668 16.9842L17.7556 16.4223L18.3648 14.7835Z" fill="url(#paint5_radial_188_4100)"/>
<path fill-rule="evenodd" clip-rule="evenodd" d="M18.0003 -0.0838872L17.4745 -0.279339L16.9442 1.14717L15.6308 0.658932L15.419 1.22885L16.7323 1.71709L16.2033 3.14018L16.7291 3.33563L17.2581 1.91254L18.5735 2.40156L18.7854 1.83164L17.47 1.34262L18.0003 -0.0838872Z" fill="url(#paint6_radial_188_4100)"/>
<path fill-rule="evenodd" clip-rule="evenodd" d="M15.1353 4.91192L14.2569 4.5854L13.371 6.9686L11.1763 6.15273L10.8224 7.10481L13.0171 7.92068L12.1333 10.2979L13.0116 10.6244L13.8954 8.2472L16.0923 9.0639L16.4462 8.11181L14.2493 7.29511L15.1353 4.91192Z" fill="url(#paint7_radial_188_4100)"/>
<path fill-rule="evenodd" clip-rule="evenodd" d="M12.2836 12.5288L11.4053 12.2023L10.5194 14.5851L8.32559 13.7696L7.97166 14.7217L10.1655 15.5372L9.28163 17.9148L10.16 18.2413L11.0438 15.8637L13.2416 16.6808L13.5955 15.7287L11.3977 14.9117L12.2836 12.5288Z" fill="url(#paint8_radial_188_4100)"/>
<path fill-rule="evenodd" clip-rule="evenodd" d="M33.4187 -1.68465L33.126 -1.79349L32.832 -1.00275L32.1084 -1.27176L31.9904 -0.954399L32.714 -0.685391L32.4181 0.110679L32.7109 0.219517L33.0068 -0.576553L33.7471 -0.301369L33.865 -0.618731L33.1248 -0.893914L33.4187 -1.68465Z" fill="url(#paint9_radial_188_4100)"/>
<path fill-rule="evenodd" clip-rule="evenodd" d="M34.535 5.62555L34.2422 5.51671L33.9484 6.3071L33.2257 6.03843L33.1077 6.3558L33.8304 6.62446L33.5344 7.42088L33.8271 7.52972L34.1232 6.7333L34.8644 7.00883L34.9823 6.69146L34.2412 6.41594L34.535 5.62555Z" fill="url(#paint10_radial_188_4100)"/>
<path fill-rule="evenodd" clip-rule="evenodd" d="M24.3239 16.4756L24.0312 16.3667L23.7372 17.1575L23.0134 16.8884L22.8954 17.2058L23.6192 17.4748L23.3233 18.2709L23.6161 18.3797L23.912 17.5837L24.6521 17.8588L24.7701 17.5414L24.03 17.2663L24.3239 16.4756Z" fill="url(#paint11_radial_188_4100)"/>
<path fill-rule="evenodd" clip-rule="evenodd" d="M3.57124 2.79001L3.27847 2.68117L2.98448 3.47199L2.2607 3.20292L2.14272 3.52028L2.8665 3.78935L2.57059 4.58534L2.86337 4.69418L3.15928 3.89819L3.89937 4.17331L4.01735 3.85595L3.27726 3.58083L3.57124 2.79001Z" fill="url(#paint12_radial_188_4100)"/>
<path fill-rule="evenodd" clip-rule="evenodd" d="M4.92824 9.55022L4.41518 9.35949L3.90038 10.7443L2.63388 10.2735L2.42713 10.8296L3.69363 11.3005L3.17469 12.6964L3.68775 12.8871L4.20669 11.4912L5.5055 11.974L5.71225 11.4179L4.41344 10.935L4.92824 9.55022Z" fill="url(#paint13_radial_188_4100)"/>
<path fill-rule="evenodd" clip-rule="evenodd" d="M11.3199 -4.09079L10.7344 -4.30846L10.1439 -2.72015L8.67249 -3.26716L8.43653 -2.63244L9.90797 -2.08543L9.31863 -0.50012L9.90418 -0.282443L10.4935 -1.86775L11.9498 -1.32638L12.1858 -1.9611L10.7295 -2.50248L11.3199 -4.09079Z" fill="url(#paint14_radial_188_4100)"/>
<path fill-rule="evenodd" clip-rule="evenodd" d="M8.48497 3.5264L7.89942 3.30873L7.30897 4.89703L5.83753 4.35003L5.60157 4.98475L7.07301 5.53176L6.48367 7.11707L7.06922 7.33474L7.65856 5.74943L9.11485 6.29081L9.35081 5.65609L7.89452 5.11471L8.48497 3.5264Z" fill="url(#paint15_radial_188_4100)"/>
<path fill-rule="evenodd" clip-rule="evenodd" d="M30.6422 3.09086L30.0566 2.87318L29.4662 4.46149L27.9948 3.91448L27.7588 4.5492L29.2302 5.09621L28.6409 6.68152L29.2264 6.8992L29.8158 5.31389L31.2721 5.85526L31.508 5.22054L30.0517 4.67916L30.6422 3.09086Z" fill="url(#paint16_radial_188_4100)"/>
<path fill-rule="evenodd" clip-rule="evenodd" d="M27.8109 10.708L27.2253 10.4904L26.6349 12.0787L25.1635 11.5317L24.9275 12.1664L26.3989 12.7134L25.8096 14.2987L26.3951 14.5164L26.9845 12.9311L28.4408 13.4725L28.6767 12.8377L27.2204 12.2964L27.8109 10.708Z" fill="url(#paint17_radial_188_4100)"/>
</g>
</g>
<defs>
<linearGradient id="paint0_linear_188_4100" x1="27.3668" y1="1.27539" x2="27.3668" y2="41.8865" gradientUnits="userSpaceOnUse">
<stop stop-color="white" stop-opacity="0"/>
<stop offset="0.500574" stop-color="white"/>
<stop offset="1" stop-color="white" stop-opacity="0"/>
</linearGradient>
<linearGradient id="paint1_linear_188_4100" x1="20.375" y1="25.1746" x2="37.1691" y2="33.2496" gradientUnits="userSpaceOnUse">
<stop stop-color="#1E1E1E" stop-opacity="0"/>
<stop offset="1" stop-color="#1D1D1D"/>
</linearGradient>
<linearGradient id="paint2_linear_188_4100" x1="15.2752" y1="14.9746" x2="2.52519" y2="11.1496" gradientUnits="userSpaceOnUse">
<stop stop-color="#322E3B" stop-opacity="0"/>
<stop offset="1" stop-color="#4A4458"/>
</linearGradient>
<radialGradient id="paint3_radial_188_4100" cx="0" cy="0" r="1" gradientUnits="userSpaceOnUse" gradientTransform="translate(22.1547 3.27459) rotate(54.4301) scale(2.44194 3.04167)">
<stop stop-color="white"/>
<stop offset="1" stop-color="white" stop-opacity="0"/>
</radialGradient>
<radialGradient id="paint4_radial_188_4100" cx="0" cy="0" r="1" gradientUnits="userSpaceOnUse" gradientTransform="translate(19.8879 10.1566) rotate(54.4301) scale(2.44498 3.04545)">
<stop stop-color="white"/>
<stop offset="1" stop-color="white" stop-opacity="0"/>
</radialGradient>
<radialGradient id="paint5_radial_188_4100" cx="0" cy="0" r="1" gradientUnits="userSpaceOnUse" gradientTransform="translate(17.3338 16.6359) rotate(54.4301) scale(2.61216 3.25369)">
<stop stop-color="white"/>
<stop offset="1" stop-color="white" stop-opacity="0"/>
</radialGradient>
<radialGradient id="paint6_radial_188_4100" cx="0" cy="0" r="1" gradientUnits="userSpaceOnUse" gradientTransform="translate(17.1028 1.52854) rotate(54.4301) scale(2.27372 2.83213)">
<stop stop-color="white"/>
<stop offset="1" stop-color="white" stop-opacity="0"/>
</radialGradient>
<radialGradient id="paint7_radial_188_4100" cx="0" cy="0" r="1" gradientUnits="userSpaceOnUse" gradientTransform="translate(13.6354 7.60533) rotate(54.4301) scale(3.79839 4.73125)">
<stop stop-color="white"/>
<stop offset="1" stop-color="white" stop-opacity="0"/>
</radialGradient>
<radialGradient id="paint8_radial_188_4100" cx="0" cy="0" r="1" gradientUnits="userSpaceOnUse" gradientTransform="translate(10.7846 15.2225) rotate(54.4301) scale(3.79839 4.73125)">
<stop stop-color="white"/>
<stop offset="1" stop-color="white" stop-opacity="0"/>
</radialGradient>
<radialGradient id="paint9_radial_188_4100" cx="0" cy="0" r="1" gradientUnits="userSpaceOnUse" gradientTransform="translate(32.9267 -0.7839) rotate(54.4301) scale(1.26613 1.57708)">
<stop stop-color="white"/>
<stop offset="1" stop-color="white" stop-opacity="0"/>
</radialGradient>
<radialGradient id="paint10_radial_188_4100" cx="0" cy="0" r="1" gradientUnits="userSpaceOnUse" gradientTransform="translate(34.0439 6.52665) rotate(54.4301) scale(1.26613 1.57708)">
<stop stop-color="white"/>
<stop offset="1" stop-color="white" stop-opacity="0"/>
</radialGradient>
<radialGradient id="paint11_radial_188_4100" cx="0" cy="0" r="1" gradientUnits="userSpaceOnUse" gradientTransform="translate(23.8318 17.3763) rotate(54.4301) scale(1.26613 1.57708)">
<stop stop-color="white"/>
<stop offset="1" stop-color="white" stop-opacity="0"/>
</radialGradient>
<radialGradient id="paint12_radial_188_4100" cx="0" cy="0" r="1" gradientUnits="userSpaceOnUse" gradientTransform="translate(3.07907 3.69071) rotate(54.4301) scale(1.26613 1.57708)">
<stop stop-color="white"/>
<stop offset="1" stop-color="white" stop-opacity="0"/>
</radialGradient>
<radialGradient id="paint13_radial_188_4100" cx="0" cy="0" r="1" gradientUnits="userSpaceOnUse" gradientTransform="translate(4.06762 11.1293) rotate(54.4301) scale(2.21879 2.76371)">
<stop stop-color="white"/>
<stop offset="1" stop-color="white" stop-opacity="0"/>
</radialGradient>
<radialGradient id="paint14_radial_188_4100" cx="0" cy="0" r="1" gradientUnits="userSpaceOnUse" gradientTransform="translate(10.3117 -2.29827) rotate(54.4301) scale(2.53226 3.15417)">
<stop stop-color="white"/>
<stop offset="1" stop-color="white" stop-opacity="0"/>
</radialGradient>
<radialGradient id="paint15_radial_188_4100" cx="0" cy="0" r="1" gradientUnits="userSpaceOnUse" gradientTransform="translate(7.47675 5.31892) rotate(54.4301) scale(2.53226 3.15417)">
<stop stop-color="white"/>
<stop offset="1" stop-color="white" stop-opacity="0"/>
</radialGradient>
<radialGradient id="paint16_radial_188_4100" cx="0" cy="0" r="1" gradientUnits="userSpaceOnUse" gradientTransform="translate(29.634 4.88337) rotate(54.4301) scale(2.53226 3.15417)">
<stop stop-color="white"/>
<stop offset="1" stop-color="white" stop-opacity="0"/>
</radialGradient>
<radialGradient id="paint17_radial_188_4100" cx="0" cy="0" r="1" gradientUnits="userSpaceOnUse" gradientTransform="translate(26.8027 12.5006) rotate(54.4301) scale(2.53226 3.15417)">
<stop stop-color="white"/>
<stop offset="1" stop-color="white" stop-opacity="0"/>
</radialGradient>
<clipPath id="clip0_188_4100">
<rect x="0.825195" y="0.0996094" width="40.8" height="40.8" rx="20.4" fill="white"/>
</clipPath>
</defs>
</svg>
