<svg width="56" height="56" viewBox="0 0 56 56" fill="none" xmlns="http://www.w3.org/2000/svg">
<path d="M28.0002 51.8008C14.8558 51.8008 4.2002 41.1451 4.2002 28.0008C4.2002 14.8564 14.8558 4.20077 28.0002 4.20077C41.1446 4.20077 51.8002 14.8564 51.8002 28.0008C51.8002 41.1451 41.1446 51.8008 28.0002 51.8008Z" fill="url(#paint0_linear_448_1958)"/>
<path d="M28.0002 51.8008C14.8558 51.8008 4.2002 41.1451 4.2002 28.0008C4.2002 14.8564 14.8558 4.20077 28.0002 4.20077C41.1446 4.20077 51.8002 14.8564 51.8002 28.0008C51.8002 41.1451 41.1446 51.8008 28.0002 51.8008Z" fill="url(#paint1_linear_448_1958)" fill-opacity="0.1"/>
<path d="M28.0002 51.8008C14.8558 51.8008 4.2002 41.1451 4.2002 28.0008C4.2002 14.8564 14.8558 4.20077 28.0002 4.20077C41.1446 4.20077 51.8002 14.8564 51.8002 28.0008C51.8002 41.1451 41.1446 51.8008 28.0002 51.8008Z" fill="url(#paint2_linear_448_1958)" fill-opacity="0.1"/>
<g style="mix-blend-mode:screen" opacity="0.4">
<rect x="4.69554" y="51.3049" width="46.6083" height="46.6083" rx="23.3042" transform="rotate(-90 4.69554 51.3049)" stroke="url(#paint3_linear_448_1958)" stroke-width="0.991667"/>
</g>
<defs>
<linearGradient id="paint0_linear_448_1958" x1="4.2002" y1="28.0008" x2="51.8002" y2="28.0008" gradientUnits="userSpaceOnUse">
<stop stop-color="#212B3C"/>
<stop offset="1" stop-color="#212B3C"/>
</linearGradient>
<linearGradient id="paint1_linear_448_1958" x1="21.6535" y1="36.3308" x2="33.5535" y2="18.8774" gradientUnits="userSpaceOnUse">
<stop stop-color="white" stop-opacity="0"/>
<stop offset="0.480563" stop-color="white"/>
<stop offset="1" stop-color="white" stop-opacity="0"/>
</linearGradient>
<linearGradient id="paint2_linear_448_1958" x1="20.0669" y1="36.3308" x2="35.5369" y2="14.1174" gradientUnits="userSpaceOnUse">
<stop stop-color="white" stop-opacity="0"/>
<stop offset="0.46875" stop-color="white"/>
<stop offset="0.963542" stop-color="white" stop-opacity="0"/>
</linearGradient>
<linearGradient id="paint3_linear_448_1958" x1="21.5539" y1="74.1133" x2="6.18304" y2="64.6924" gradientUnits="userSpaceOnUse">
<stop stop-color="#2C2C2C" stop-opacity="0"/>
<stop offset="1" stop-color="white"/>
</linearGradient>
</defs>
</svg>
